#Comment line ignore any data following # character 
#Hierarchical Translation and Rotation (.htr) file 
[Header]	
#Header keywords are followed by a single value 
FileType HTR		#Single word string
DataType HTRS		#Translation followed by rotation and scale data
FileVersion 1		#integer
NumSegments 84		#integer
NumFrames 2		#integer
DataFrameRate 30		#integer, data frame rate in this file
EulerRotationOrder ZYX
CalibrationUnits mm
RotationUnits Degrees
GlobalAxisofGravity Y
BoneLengthAxis Y
ScaleFactor 1.00
[SegmentNames&Hierarchy]
#CHILD	PARENT
MASTER GLOBAL
root MASTER
chest root
L_mid_tent01 root
R_mid_tent01 root
spine01 root
Bip01_Neck chest
L_humerus chest
R_humerus chest
weapon_bone chest
Bip01_Head Bip01_Neck
eye_left_bone Bip01_Head
eye_right_bone Bip01_Head
L_forearm L_humerus
L_front_hand L_forearm
L_weapon_bone L_forearm
L_front_hand01_01 L_front_hand
L_front_hand02_01 L_front_hand
L_front_hand03_01 L_front_hand
L_front_hand01_02 L_front_hand01_01
L_front_hand02_02 L_front_hand02_01
L_front_hand03_02 L_front_hand03_01
R_forearm R_humerus
R_front_hand R_forearm
R_weapon_bone R_forearm
R_front_hand01_01 R_front_hand
R_front_hand02_01 R_front_hand
R_front_hand03_01 R_front_hand
R_front_hand01_02 R_front_hand01_01
R_front_hand02_02 R_front_hand02_01
R_front_hand03_02 R_front_hand03_01
null_rope01_connect L_mid_tent01
Rope1_Seg01 null_rope01_connect
Rope1_Seg02 Rope1_Seg01
Rope1_Seg03 Rope1_Seg02
Rope1_Seg04 Rope1_Seg03
Rope1_Seg05 Rope1_Seg04
Rope1_Seg06 Rope1_Seg05
Rope1_Seg07 Rope1_Seg06
Rope1_Seg09 Rope1_Seg07
L_mid_hand01 Rope1_Seg09
L_mid_hand02 Rope1_Seg09
L_mid_hand03 Rope1_Seg09
null_rope02_connect R_mid_tent01
Rope2_Seg01 null_rope02_connect
Rope2_Seg02 Rope2_Seg01
Rope2_Seg03 Rope2_Seg02
Rope2_Seg04 Rope2_Seg03
Rope2_Seg05 Rope2_Seg04
Rope2_Seg06 Rope2_Seg05
Rope2_Seg07 Rope2_Seg06
Rope2_Seg09 Rope2_Seg07
R_mid_hand01 Rope2_Seg09
R_mid_hand02 Rope2_Seg09
R_mid_hand03 Rope2_Seg09
spine02 spine01
spine03 spine02
pelvis spine03
null_rope03_connect pelvis
null_rope04_connect pelvis
Rope3_Seg01 null_rope03_connect
Rope3_Seg02 Rope3_Seg01
Rope3_Seg03 Rope3_Seg02
Rope3_Seg04 Rope3_Seg03
Rope3_Seg05 Rope3_Seg04
Rope3_Seg06 Rope3_Seg05
Rope3_Seg07 Rope3_Seg06
Rope3_Seg08 Rope3_Seg07
Rope3_Seg09 Rope3_Seg08
R_rear_hand01 Rope3_Seg09
R_rear_hand02 Rope3_Seg09
R_rear_hand03 Rope3_Seg09
Rope4_Seg01 null_rope04_connect
Rope4_Seg02 Rope4_Seg01
Rope4_Seg03 Rope4_Seg02
Rope4_Seg04 Rope4_Seg03
Rope4_Seg05 Rope4_Seg04
Rope4_Seg06 Rope4_Seg05
Rope4_Seg07 Rope4_Seg06
Rope4_Seg08 Rope4_Seg07
Rope4_Seg09 Rope4_Seg08
L_rear_hand01 Rope4_Seg09
L_rear_hand02 Rope4_Seg09
L_rear_hand03 Rope4_Seg09
[BasePosition]
#SegmentName Tx, Ty, Tz, Rx, Ry, Rz, BoneLength
MASTER 0.000000 0.000000 0.000000 -90.000000 0.000000 0.000000 10.000000 
root 0.000000 0.000000 0.000000 0.000000 0.000000 0.000000 10.000000 
chest 0.000000 0.000000 0.000000 0.000000 0.000000 0.000000 10.000000 
L_mid_tent01 0.000000 0.000000 0.000000 0.000000 0.000000 0.000000 10.000000 
R_mid_tent01 0.000000 0.000000 0.000000 0.000000 0.000000 0.000000 10.000000 
spine01 0.000000 0.000000 0.000000 0.000000 0.000000 0.000000 10.000000 
Bip01_Neck 0.000000 0.000000 0.000000 0.000000 0.000000 0.000000 10.000000 
L_humerus 0.000000 0.000000 0.000000 0.000000 0.000000 0.000000 10.000000 
R_humerus 0.000000 0.000000 0.000000 0.000000 0.000000 0.000000 10.000000 
weapon_bone 0.000000 0.000000 0.000000 0.000000 0.000000 0.000000 10.000000 
Bip01_Head 0.000000 0.000000 0.000000 0.000000 0.000000 0.000000 10.000000 
eye_left_bone 0.000000 0.000000 0.000000 0.000000 0.000000 0.000000 10.000000 
eye_right_bone 0.000000 0.000000 0.000000 0.000000 0.000000 0.000000 10.000000 
L_forearm 0.000000 0.000000 0.000000 0.000000 0.000000 0.000000 10.000000 
L_front_hand 0.000000 0.000000 0.000000 0.000000 0.000000 0.000000 10.000000 
L_weapon_bone 0.000000 0.000000 0.000000 0.000000 0.000000 0.000000 10.000000 
L_front_hand01_01 0.000000 0.000000 0.000000 0.000000 0.000000 0.000000 10.000000 
L_front_hand02_01 0.000000 0.000000 0.000000 0.000000 0.000000 0.000000 10.000000 
L_front_hand03_01 0.000000 0.000000 0.000000 0.000000 0.000000 0.000000 10.000000 
L_front_hand01_02 0.000000 0.000000 0.000000 0.000000 0.000000 0.000000 10.000000 
L_front_hand02_02 0.000000 0.000000 0.000000 0.000000 0.000000 0.000000 10.000000 
L_front_hand03_02 0.000000 0.000000 0.000000 0.000000 0.000000 0.000000 10.000000 
R_forearm 0.000000 0.000000 0.000000 0.000000 0.000000 0.000000 10.000000 
R_front_hand 0.000000 0.000000 0.000000 0.000000 0.000000 0.000000 10.000000 
R_weapon_bone 0.000000 0.000000 0.000000 0.000000 0.000000 0.000000 10.000000 
R_front_hand01_01 0.000000 0.000000 0.000000 0.000000 0.000000 0.000000 10.000000 
R_front_hand02_01 0.000000 0.000000 0.000000 0.000000 0.000000 0.000000 10.000000 
R_front_hand03_01 0.000000 0.000000 0.000000 0.000000 0.000000 0.000000 10.000000 
R_front_hand01_02 0.000000 0.000000 0.000000 0.000000 0.000000 0.000000 10.000000 
R_front_hand02_02 0.000000 0.000000 0.000000 0.000000 0.000000 0.000000 10.000000 
R_front_hand03_02 0.000000 0.000000 0.000000 0.000000 0.000000 0.000000 10.000000 
null_rope01_connect 0.000000 0.000000 0.000000 0.000000 0.000000 0.000000 10.000000 
Rope1_Seg01 0.000000 0.000000 0.000000 0.000000 0.000000 0.000000 10.000000 
Rope1_Seg02 0.000000 0.000000 0.000000 0.000000 0.000000 0.000000 10.000000 
Rope1_Seg03 0.000000 0.000000 0.000000 0.000000 0.000000 0.000000 10.000000 
Rope1_Seg04 0.000000 0.000000 0.000000 0.000000 0.000000 0.000000 10.000000 
Rope1_Seg05 0.000000 0.000000 0.000000 0.000000 0.000000 0.000000 10.000000 
Rope1_Seg06 0.000000 0.000000 0.000000 0.000000 0.000000 0.000000 10.000000 
Rope1_Seg07 0.000000 0.000000 0.000000 0.000000 0.000000 0.000000 10.000000 
Rope1_Seg09 0.000000 0.000000 0.000000 0.000000 0.000000 0.000000 10.000000 
L_mid_hand01 0.000000 0.000000 0.000000 0.000000 0.000000 0.000000 10.000000 
L_mid_hand02 0.000000 0.000000 0.000000 0.000000 0.000000 0.000000 10.000000 
L_mid_hand03 0.000000 0.000000 0.000000 0.000000 0.000000 0.000000 10.000000 
null_rope02_connect 0.000000 0.000000 0.000000 0.000000 0.000000 0.000000 10.000000 
Rope2_Seg01 0.000000 0.000000 0.000000 0.000000 0.000000 0.000000 10.000000 
Rope2_Seg02 0.000000 0.000000 0.000000 0.000000 0.000000 0.000000 10.000000 
Rope2_Seg03 0.000000 0.000000 0.000000 0.000000 0.000000 0.000000 10.000000 
Rope2_Seg04 0.000000 0.000000 0.000000 0.000000 0.000000 0.000000 10.000000 
Rope2_Seg05 0.000000 0.000000 0.000000 0.000000 0.000000 0.000000 10.000000 
Rope2_Seg06 0.000000 0.000000 0.000000 0.000000 0.000000 0.000000 10.000000 
Rope2_Seg07 0.000000 0.000000 0.000000 0.000000 0.000000 0.000000 10.000000 
Rope2_Seg09 0.000000 0.000000 0.000000 0.000000 0.000000 0.000000 10.000000 
R_mid_hand01 0.000000 0.000000 0.000000 0.000000 0.000000 0.000000 10.000000 
R_mid_hand02 0.000000 0.000000 0.000000 0.000000 0.000000 0.000000 10.000000 
R_mid_hand03 0.000000 0.000000 0.000000 0.000000 0.000000 0.000000 10.000000 
spine02 0.000000 0.000000 0.000000 0.000000 0.000000 0.000000 10.000000 
spine03 0.000000 0.000000 0.000000 0.000000 0.000000 0.000000 10.000000 
pelvis 0.000000 0.000000 0.000000 0.000000 0.000000 0.000000 10.000000 
null_rope03_connect 0.000000 0.000000 0.000000 0.000000 0.000000 0.000000 10.000000 
null_rope04_connect 0.000000 0.000000 0.000000 0.000000 0.000000 0.000000 10.000000 
Rope3_Seg01 0.000000 0.000000 0.000000 0.000000 0.000000 0.000000 10.000000 
Rope3_Seg02 0.000000 0.000000 0.000000 0.000000 0.000000 0.000000 10.000000 
Rope3_Seg03 0.000000 0.000000 0.000000 0.000000 0.000000 0.000000 10.000000 
Rope3_Seg04 0.000000 0.000000 0.000000 0.000000 0.000000 0.000000 10.000000 
Rope3_Seg05 0.000000 0.000000 0.000000 0.000000 0.000000 0.000000 10.000000 
Rope3_Seg06 0.000000 0.000000 0.000000 0.000000 0.000000 0.000000 10.000000 
Rope3_Seg07 0.000000 0.000000 0.000000 0.000000 0.000000 0.000000 10.000000 
Rope3_Seg08 0.000000 0.000000 0.000000 0.000000 0.000000 0.000000 10.000000 
Rope3_Seg09 0.000000 0.000000 0.000000 0.000000 0.000000 0.000000 10.000000 
R_rear_hand01 0.000000 0.000000 0.000000 0.000000 0.000000 0.000000 10.000000 
R_rear_hand02 0.000000 0.000000 0.000000 0.000000 0.000000 0.000000 10.000000 
R_rear_hand03 0.000000 0.000000 0.000000 0.000000 0.000000 0.000000 10.000000 
Rope4_Seg01 0.000000 0.000000 0.000000 0.000000 0.000000 0.000000 10.000000 
Rope4_Seg02 0.000000 0.000000 0.000000 0.000000 0.000000 0.000000 10.000000 
Rope4_Seg03 0.000000 0.000000 0.000000 0.000000 0.000000 0.000000 10.000000 
Rope4_Seg04 0.000000 0.000000 0.000000 0.000000 0.000000 0.000000 10.000000 
Rope4_Seg05 0.000000 0.000000 0.000000 0.000000 0.000000 0.000000 10.000000 
Rope4_Seg06 0.000000 0.000000 0.000000 0.000000 0.000000 0.000000 10.000000 
Rope4_Seg07 0.000000 0.000000 0.000000 0.000000 0.000000 0.000000 10.000000 
Rope4_Seg08 0.000000 0.000000 0.000000 0.000000 0.000000 0.000000 10.000000 
Rope4_Seg09 0.000000 0.000000 0.000000 0.000000 0.000000 0.000000 10.000000 
L_rear_hand01 0.000000 0.000000 0.000000 0.000000 0.000000 0.000000 10.000000 
L_rear_hand02 0.000000 0.000000 0.000000 0.000000 0.000000 0.000000 10.000000 
L_rear_hand03 0.000000 0.000000 0.000000 0.000000 0.000000 0.000000 10.000000 
#Beginning of Data. Separated by tabs
#Fr	Tx	Ty	Tz	Rx	Ry	Rz	SF
[MASTER]
43 -41.365929 5012.330078 302.206573 0.001660 0.001660 0.001660 5021.602539
44 -33.092968 5302.409668 241.765503 0.001660 0.001660 0.001660 5308.021484
[root]
43 20.209679 -77.461243 1101.872192 -91.685074 -16.617453 -89.597153 1104.776489
44 10.350004 -54.143616 1194.917847 -91.700546 -14.963247 -89.556053 1196.188599
[chest]
43 -84.512650 -34.090519 0.000000 0.578593 -6.422191 149.233612 91.129311
44 -84.512650 -34.090519 0.000000 -0.224095 -5.243150 153.231079 91.129311
[L_mid_tent01]
43 27.299171 22.179260 -249.918732 -18.230679 20.238779 25.982628 252.381729
44 27.299171 22.179264 -249.918732 -18.881348 18.644444 23.309322 252.381729
[R_mid_tent01]
43 23.228794 24.509907 226.238495 -170.194427 -22.886831 33.228199 228.744751
44 23.228794 24.509907 226.238495 -169.112915 -21.961597 31.331690 228.744751
[spine01]
43 -0.361383 -0.195265 0.000000 -0.000001 -0.000007 22.052340 0.410763
44 -0.361383 -0.195265 0.000000 -0.000001 -0.000007 22.052340 0.410763
[Bip01_Neck]
43 165.484543 71.581718 0.000119 176.643677 -1.657967 43.431911 180.302734
44 165.484543 71.581718 0.000119 176.643677 -1.657967 43.431911 180.302734
[L_humerus]
43 -13.983130 -135.272980 -120.471481 3.464953 77.039001 93.764587 181.680161
44 -13.983130 -135.272980 -120.471481 0.842821 75.751923 91.113907 181.680161
[R_humerus]
43 -13.983309 -135.273102 125.287651 32.096275 -79.066544 63.296669 184.909012
44 -13.983309 -135.273102 125.287651 31.537149 -77.494949 63.915703 184.909012
[weapon_bone]
43 235.964890 -300.705902 0.000000 0.000000 -89.951546 -128.212341 382.234833
44 235.964890 -300.705902 0.000000 0.000000 -89.951546 -128.212341 382.234833
[Bip01_Head]
43 203.286560 162.408752 31.616484 4.962490 2.797846 -43.898743 262.109955
44 203.286591 162.408752 31.616484 4.962490 2.797846 -43.898743 262.109985
[eye_left_bone]
43 -24.626970 125.451866 -64.772606 0.000000 -90.000000 -99.840431 143.318359
44 -24.626970 125.451866 -64.772606 0.000000 -90.000000 -99.840431 143.318359
[eye_right_bone]
43 -24.626970 125.451866 64.327362 0.000000 -89.965736 80.156380 143.117676
44 -24.626970 125.451866 64.327362 0.000000 -89.965736 80.156380 143.117676
[L_forearm]
43 322.776093 0.000000 -0.000119 0.000775 0.002215 -51.426239 322.776093
44 322.776093 0.000000 -0.000119 0.000849 0.002188 -47.608231 322.776093
[L_front_hand]
43 241.149185 -0.042021 -3.300071 0.836590 -1.835725 -27.423449 241.171753
44 241.149185 -0.042021 -3.300071 0.836590 -1.835725 -27.423449 241.171753
[L_weapon_bone]
43 156.183838 0.000000 0.000000 0.000014 0.000007 0.000001 156.183838
44 156.183838 0.000000 0.000000 0.000014 0.000007 0.000001 156.183838
[L_front_hand01_01]
43 86.095154 20.947098 -0.655860 -0.366594 -0.477154 75.385574 88.609184
44 86.095154 20.947098 -0.655860 -0.366594 -0.477154 75.385574 88.609184
[L_front_hand02_01]
43 86.935165 -11.437475 24.513514 154.399796 -59.883835 -61.369587 91.046425
44 86.935165 -11.437475 24.513514 154.399796 -59.883835 -61.369587 91.046425
[L_front_hand03_01]
43 86.637497 -14.123976 -20.424902 -153.913849 58.118122 -62.702866 90.126129
44 86.637497 -14.123976 -20.424902 -153.913879 58.118130 -62.702892 90.126129
[L_front_hand01_02]
43 71.020905 -0.000179 0.000030 0.000334 -0.002323 -106.379684 71.020905
44 71.020905 -0.000179 0.000030 0.000334 -0.002323 -106.379684 71.020905
[L_front_hand02_02]
43 71.020927 -0.000119 0.000060 0.000334 -0.002323 -106.379684 71.020927
44 71.020927 -0.000119 0.000060 0.000334 -0.002323 -106.379684 71.020927
[L_front_hand03_02]
43 71.020905 -0.000060 0.000060 0.000334 -0.002323 -106.379684 71.020905
44 71.020905 -0.000060 0.000060 0.000334 -0.002323 -106.379684 71.020905
[R_forearm]
43 322.776428 -0.000060 0.000030 0.152009 -0.147996 -46.766582 322.776428
44 322.776428 -0.000060 0.000030 0.143726 -0.159819 -42.606304 322.776428
[R_front_hand]
43 238.847015 -0.006795 2.210259 42.936222 -10.646152 -26.312963 238.857239
44 238.847015 -0.006795 2.210259 42.936222 -10.646152 -26.312963 238.857239
[R_weapon_bone]
43 155.664093 0.002503 -0.000030 0.003487 0.001180 -90.988930 155.664078
44 155.664093 0.002503 -0.000030 0.003487 0.001180 -90.988930 155.664078
[R_front_hand01_01]
43 87.624611 14.231146 22.918642 -154.633499 -59.950619 61.746044 91.683487
44 87.624611 14.231146 22.918642 -154.633499 -59.950619 61.746044 91.683487
[R_front_hand02_01]
43 89.356956 14.367283 -19.491137 154.602661 58.302849 63.744389 92.579636
44 89.356956 14.367283 -19.491137 154.602661 58.302849 63.744389 92.579636
[R_front_hand03_01]
43 87.286232 -22.307278 -0.143439 0.162155 -0.423168 -75.767921 90.091743
44 87.286232 -22.307278 -0.143439 0.162155 -0.423168 -75.767921 90.091743
[R_front_hand01_02]
43 71.020905 0.000060 0.000119 0.002323 -0.000334 106.381714 71.020905
44 71.020905 0.000060 0.000119 0.002323 -0.000334 106.381714 71.020905
[R_front_hand02_02]
43 71.020844 -0.000030 -0.000119 0.002323 -0.000334 106.381714 71.020836
44 71.020844 -0.000030 -0.000119 0.002323 -0.000334 106.381714 71.020836
[R_front_hand03_02]
43 71.020905 0.000000 0.000030 0.002323 -0.000334 106.381714 71.020905
44 71.020905 0.000000 0.000030 0.002323 -0.000334 106.381714 71.020905
[null_rope01_connect]
43 328.732483 0.000000 -0.000238 -144.656265 -61.668564 -137.764374 328.732483
44 328.732483 0.000000 -0.000238 -147.081619 -62.346870 -134.162308 328.732483
[Rope1_Seg01]
43 -0.000034 0.000004 0.000136 168.535049 26.552311 -123.903885 0.000141
44 -0.000035 0.000003 0.000140 81.238373 17.790699 -124.865448 0.000144
[Rope1_Seg02]
43 139.999863 -0.000179 0.000000 -135.084656 6.610046 -3.246712 139.999863
44 139.999863 -0.000179 0.000000 -31.876244 3.731659 3.599193 139.999863
[Rope1_Seg03]
43 139.999924 0.000060 -0.000060 -8.748717 -3.236364 6.047512 139.999924
44 139.999924 0.000060 -0.000060 -12.585864 0.216555 4.023862 139.999924
[Rope1_Seg04]
43 139.999924 -0.000060 -0.000119 2.028967 -4.653130 4.232157 139.999924
44 139.999924 -0.000060 -0.000119 -2.933357 -1.430133 2.838957 139.999924
[Rope1_Seg05]
43 139.999832 0.000119 -0.000060 -20.362436 2.649668 10.585278 139.999832
44 139.999832 0.000119 -0.000060 -26.957853 4.833609 12.326564 139.999832
[Rope1_Seg06]
43 139.999954 0.000119 -0.000060 -13.787017 0.799829 12.644812 139.999954
44 139.999954 0.000119 -0.000060 -12.502262 -0.536190 13.229198 139.999954
[Rope1_Seg07]
43 139.999985 0.000060 0.000000 -3.792015 -2.010770 6.892203 139.999985
44 139.999985 0.000060 0.000000 -3.319065 -1.973961 6.381299 139.999985
[Rope1_Seg09]
43 121.602913 0.000119 -0.000089 -89.793175 -1.359789 0.847147 121.602913
44 121.602913 0.000119 -0.000089 -89.793175 -1.359789 0.847147 121.602913
[L_mid_hand01]
43 103.859421 1.038730 8.195221 130.544373 -67.584534 -38.866943 104.187431
44 103.859421 1.038730 8.195221 130.544373 -67.584534 -38.866943 104.187431
[L_mid_hand02]
43 105.572853 -4.139662 -10.864139 -168.923172 43.409309 -73.498886 106.211075
44 105.572853 -4.139662 -10.864139 -168.923172 43.409309 -73.498886 106.211075
[L_mid_hand03]
43 104.641464 17.579376 -3.913581 -6.012627 17.808174 74.893669 106.179977
44 104.641464 17.579376 -3.913581 -6.012627 17.808174 74.893669 106.179977
[null_rope02_connect]
43 328.732849 0.000179 -0.000119 -127.894341 66.294724 -19.043388 328.732849
44 328.732849 0.000179 -0.000119 -130.817398 66.709808 -22.075956 328.732849
[Rope2_Seg01]
43 0.000072 0.000016 0.000000 161.087585 27.231266 -50.639172 0.000074
44 0.000073 0.000013 0.000000 126.447975 20.966019 -51.796337 0.000074
[Rope2_Seg02]
43 139.999741 -0.000060 -0.000119 -35.322281 -2.145655 16.783697 139.999756
44 139.999741 -0.000060 -0.000119 -14.688870 -11.537014 11.896925 139.999756
[Rope2_Seg03]
43 140.000107 0.000030 0.000000 -7.609381 -11.461123 10.756794 140.000107
44 140.000107 0.000030 0.000000 -0.938473 -11.897534 5.720802 140.000107
[Rope2_Seg04]
43 139.999802 0.000000 -0.000060 -3.735465 -6.212512 6.679894 139.999802
44 139.999802 0.000000 -0.000060 -3.006509 -6.206865 5.716091 139.999802
[Rope2_Seg05]
43 139.999985 -0.000060 0.000119 -4.153730 1.032973 4.805898 139.999985
44 139.999985 -0.000060 0.000119 -3.928731 -1.591749 5.541923 139.999985
[Rope2_Seg06]
43 139.999893 -0.000030 -0.000119 -2.712251 -0.066866 3.585509 139.999893
44 139.999893 -0.000030 -0.000119 -1.791175 -1.818635 3.211365 139.999893
[Rope2_Seg07]
43 139.999893 0.000060 -0.000060 -1.650130 -0.644523 2.538694 139.999893
44 139.999893 0.000060 -0.000060 -1.004022 -1.444394 2.077021 139.999893
[Rope2_Seg09]
43 121.338966 0.000089 -0.000060 33.793236 -1.359788 -0.847141 121.338966
44 121.338966 0.000089 -0.000060 33.793236 -1.359788 -0.847141 121.338966
[R_mid_hand01]
43 104.680779 11.144459 -10.335981 -16.212063 45.237247 70.462852 105.778534
44 104.680779 11.144459 -10.335981 -16.212063 45.237240 70.462845 105.778534
[R_mid_hand02]
43 104.070427 2.443552 8.231699 49.067368 -67.749771 39.286453 104.424065
44 104.070427 2.443552 8.231699 49.067387 -67.749794 39.286469 104.424065
[R_mid_hand03]
43 106.028137 -11.221827 -5.996406 -177.101105 15.551026 -76.585571 106.788818
44 106.028137 -11.221827 -5.996406 -177.101105 15.551026 -76.585571 106.788818
[spine02]
43 129.756927 0.001550 0.000119 0.371322 -4.043665 -13.094756 129.756927
44 129.756927 0.001550 0.000119 0.366836 -4.044132 -13.037323 129.756927
[spine03]
43 78.613907 0.081771 -4.898989 1.905077 3.828752 16.583315 78.766441
44 78.613907 0.081774 -4.898988 1.902440 3.829489 16.553236 78.766441
[pelvis]
43 169.435242 0.051022 0.000000 -0.060833 -0.180101 14.322183 169.435257
44 169.435242 0.051022 0.000000 -0.060700 -0.180146 14.237443 169.435257
[null_rope03_connect]
43 -1.257226 -2.466202 137.391083 0.000000 -89.503471 66.774040 137.418976
44 -1.257226 -2.466202 137.391083 0.000000 -89.469917 65.173370 137.418976
[null_rope04_connect]
43 -1.259640 -2.480268 -137.844437 0.000000 -89.503471 66.774040 137.872513
44 -1.259640 -2.480268 -137.844437 0.000000 -89.469917 65.173370 137.872513
[Rope3_Seg01]
43 0.000000 0.000000 0.000000 -129.645126 -1.566762 -93.330528 0.000000
44 0.000000 0.000000 0.000000 -131.947952 6.798980 -94.301178 0.000000
[Rope3_Seg02]
43 139.999924 -0.000119 0.000060 -0.537111 -3.005783 -0.018882 139.999924
44 139.999924 -0.000119 0.000060 -0.442891 -2.841557 -1.026284 139.999924
[Rope3_Seg03]
43 139.999924 -0.000119 0.000119 -0.575547 -3.698673 -0.053978 139.999924
44 139.999924 -0.000119 0.000119 -0.430929 -3.416329 -1.257128 139.999924
[Rope3_Seg04]
43 139.999924 0.000119 0.000000 -1.028845 -6.323644 0.989749 139.999924
44 139.999924 0.000119 0.000000 -0.621939 -6.005868 -1.803177 139.999924
[Rope3_Seg05]
43 139.999924 -0.000238 0.000060 -0.096578 -4.323659 -1.593341 139.999924
44 139.999924 -0.000238 0.000060 0.041637 -2.668936 -1.715992 139.999924
[Rope3_Seg06]
43 139.999893 -0.000119 -0.000060 0.547058 1.382463 -3.187339 139.999893
44 139.999893 -0.000119 -0.000060 0.596307 2.244595 -0.451662 139.999893
[Rope3_Seg07]
43 139.999771 0.000060 -0.000119 0.531600 -0.055922 -1.447740 139.999771
44 139.999771 0.000060 -0.000119 0.563812 0.419351 -0.456242 139.999771
[Rope3_Seg08]
43 139.999985 -0.000060 0.000000 0.541904 -0.157605 -0.834927 139.999985
44 139.999985 -0.000060 0.000000 0.565048 0.161423 -0.304185 139.999985
[Rope3_Seg09]
43 90.185997 -0.000179 -0.000060 89.793228 -1.359877 -0.847183 90.185997
44 90.185997 -0.000179 -0.000060 89.793228 -1.359877 -0.847183 90.185997
[R_rear_hand01]
43 103.366196 -6.073594 -10.757982 -177.714203 24.565960 -73.910950 104.101845
44 103.366196 -6.073594 -10.757982 -177.714203 24.565960 -73.910950 104.101845
[R_rear_hand02]
43 100.509819 12.039542 -7.992327 -12.874829 36.868488 72.167213 101.543350
44 100.509819 12.039542 -7.992327 -12.874829 36.868488 72.167213 101.543350
[R_rear_hand03]
43 101.539970 5.215704 5.435467 71.484581 -71.816628 21.513813 101.819031
44 101.539970 5.215704 5.435467 71.484581 -71.816628 21.513813 101.819031
[Rope4_Seg01]
43 0.000010 0.000038 -0.000114 44.380920 13.037045 -121.743683 0.000121
44 0.000010 0.000038 -0.000114 43.759277 15.493356 -121.887543 0.000121
[Rope4_Seg02]
43 139.999985 0.000060 0.000119 -0.102670 4.806627 1.170533 139.999985
44 139.999985 0.000060 0.000119 -0.049159 4.657698 1.306428 139.999985
[Rope4_Seg03]
43 139.999924 0.000000 -0.000238 0.000475 5.404718 1.338537 139.999924
44 139.999924 0.000000 -0.000238 0.034906 5.240960 1.483611 139.999924
[Rope4_Seg04]
43 139.999985 0.000000 0.000119 0.465959 11.486289 3.379357 139.999985
44 139.999985 0.000000 0.000119 0.510971 11.061303 4.230889 139.999985
[Rope4_Seg05]
43 139.999802 -0.000060 -0.000119 0.239770 3.005720 0.401274 139.999802
44 139.999802 -0.000060 -0.000119 0.298088 3.463381 0.312502 139.999802
[Rope4_Seg06]
43 139.999924 0.000000 0.000060 0.407885 -10.808212 -3.977158 139.999924
44 139.999924 0.000000 0.000060 0.713721 -10.226915 -5.730188 139.999924
[Rope4_Seg07]
43 139.999802 0.000000 0.000000 0.278664 -5.817747 -2.137065 139.999802
44 139.999802 0.000000 0.000000 0.261949 -5.594063 -3.096347 139.999802
[Rope4_Seg08]
43 139.999924 0.000000 0.000119 -1.408412 -2.423685 -0.928307 139.999924
44 139.999924 0.000000 0.000119 -1.466262 -2.231626 -1.340141 139.999924
[Rope4_Seg09]
43 90.185791 0.000060 0.000060 -135.617828 2.228885 0.850567 90.185791
44 90.185791 0.000060 0.000060 -135.617828 2.228885 0.850567 90.185791
[L_rear_hand01]
43 101.696655 -8.392275 -7.654577 -12.874829 -36.868488 107.832764 102.329041
44 101.696655 -8.392275 -7.654577 -12.874829 -36.868488 107.832764 102.329041
[L_rear_hand02]
43 102.726799 -1.568258 5.773216 71.484581 71.816628 158.486160 102.900848
44 102.726799 -1.568258 5.773216 71.484581 71.816628 158.486160 102.900848
[L_rear_hand03]
43 104.552910 9.721220 -10.420293 -177.714203 -24.565960 -106.089035 105.519653
44 104.552910 9.721220 -10.420293 -177.714203 -24.565960 -106.089035 105.519653
